<svg fill="rgb(255, 255, 255)" viewBox="0 0 24 24" overflow="visible"><path d="M17.466 3.254a.698.698 0 0 0-.36-.233.653.653 0 0 0-.418.03.718.718 0 0 0-.329.281.812.812 0 0 0-.124.434V6.45a.4.4 0 0 1-.103.271.34.34 0 0 1-.25.112h-7.58c-2.2.001-4.308.949-5.864 2.635S.005 13.442 0 15.829a9.352 9.352 0 0 0 1.3 4.817.727.727 0 0 0 .3.284.656.656 0 0 0 .754-.114.775.775 0 0 0 .217-.361c.377-1.281 1.119-2.4 2.118-3.195a5.563 5.563 0 0 1 3.443-1.232h7.75a.33.33 0 0 1 .135.03c.043.019.082.047.115.083a.411.411 0 0 1 .103.272v2.682c0 .155.043.307.124.435.08.128.195.226.329.282.133.056.279.066.418.03a.698.698 0 0 0 .36-.233l6.353-7.664a.805.805 0 0 0 .181-.513.805.805 0 0 0-.181-.512l-6.353-7.666z"></path></svg>
